# xmcd CD database file
#
# Track frame offsets:
#	150
#	24630
#	42421
#	72096
#	85813
#	101881
#	119935
#	132491
#	156650
#	167815
#	183027
#
# Disc length: 2659 seconds
#
# Revision: 0
# Processed by: cddbd v1.5.2PL0 Copyright (c) Steve Scherf et al.
# Submitted via: CDex 1.70beta2
#
DISCID=a00a610b
DTITLE=Jeremy Steig - Jeremy and The Satyrs
DYEAR=1968
DGENRE=Jazz
TTITLE0=In the World of Glass Teardrops
TTITLE1=Superbaby
TTITLE2=She Didn't Even Say Goodbye
TTITLE3=The Do It
TTITLE4=The First Time I Saw You, Baby (With Your Pretty Green Eyes)
TTITLE5=Lovely Child of Tears
TTITLE6=(Let's Go to the) Movie Show
TTITLE7=Mean Black Snake
TTITLE8=Canzonetta
TTITLE9=Foreign Release
TTITLE10=Satyrized
EXTD=YEAR: 1968
EXTT0=
EXTT1=
EXTT2=
EXTT3=
EXTT4=
EXTT5=
EXTT6=
EXTT7=
EXTT8=
EXTT9=
EXTT10=
PLAYORDER=
